# xmcd CD database file
#
# Track frame offsets:
#	150
#	30644
#	63844
#	92643
#	111662
#	150807
#	175906
#	195877
#	213576
#	238831
#	258517
#	285775
#	307281
#
# Disc length: 4388 seconds
#
# Revision: 0
# Processed by: cddbd v1.5.2PL0 Copyright (c) Steve Scherf et al.
# Submitted via: CDex 1.51
#
DISCID=ad11220d
DTITLE=Tom Blacksmith Band - Live im Café Garbaty
DYEAR=2007
DGENRE=Blues
TTITLE0=Michelle
TTITLE1=Times Gettin Tough
TTITLE2=Born Under A Bad Sign
TTITLE3=You´re The One
TTITLE4=Gipsy´s Home
TTITLE5=You Upset Me
TTITLE6=Blues Goes Funky
TTITLE7=Get On Down
TTITLE8=Breaking Up
TTITLE9=Every Day
TTITLE10=You´re So Fine
TTITLE11=Teenage Wedding
TTITLE12=My Girl
EXTD=YEAR: 2007
EXTT0=
EXTT1=
EXTT2=
EXTT3=
EXTT4=
EXTT5=
EXTT6=
EXTT7=
EXTT8=
EXTT9=
EXTT10=
EXTT11=
EXTT12=
PLAYORDER=
